<svg width="16" height="16" viewBox="0 0 16 16" fill="none" xmlns="http://www.w3.org/2000/svg">
<rect x="0.5" y="0.5" width="15" height="15" rx="7.5" fill="url(#paint0_linear_509_17086)" style=""/>
<rect x="0.5" y="0.5" width="15" height="15" rx="7.5" stroke="url(#paint1_linear_509_17086)" style=""/>
<path fill-rule="evenodd" clip-rule="evenodd" d="M8 3.97021C9.83734 3.97021 11.3875 5.19982 11.8724 6.88102C12.4978 6.8965 13 7.40829 13 8.03738C13 8.67397 12.4858 9.19045 11.85 9.19408C11.3412 10.8367 9.80992 12.0299 8 12.0299C6.19008 12.0299 4.65885 10.8367 4.14998 9.19408C3.51424 9.19045 3 8.67397 3 8.03738C3 7.40829 3.50219 6.8965 4.12755 6.88102C4.61252 5.19982 6.16266 3.97021 8 3.97021ZM4.42948 6.91301C4.89486 5.38248 6.31736 4.26872 8 4.26872C9.68264 4.26872 11.1051 5.38248 11.5705 6.91301C11.0633 7.03562 10.6866 7.4925 10.6866 8.03738C10.6866 8.57443 11.0526 9.026 11.5488 9.15626C11.0621 10.6511 9.6572 11.7314 8 11.7314C6.3428 11.7314 4.93793 10.6511 4.45125 9.15626C4.94743 9.026 5.31343 8.57443 5.31343 8.03738C5.31343 7.4925 4.93669 7.03562 4.42948 6.91301Z" fill="white" style="fill:white;fill-opacity:1;"/>
<circle cx="8" cy="8" r="4" stroke="white" style="stroke:white;stroke-opacity:1;" stroke-width="0.3"/>
<defs>
<linearGradient id="paint0_linear_509_17086" x1="8" y1="-3.83333" x2="8" y2="21.5" gradientUnits="userSpaceOnUse">
<stop stop-color="#1246FF" style="stop-color:#1246FF;stop-color:color(display-p3 0.0706 0.2745 1.0000);stop-opacity:1;"/>
<stop offset="1" stop-color="#4770FF" style="stop-color:#4770FF;stop-color:color(display-p3 0.2793 0.4374 1.0000);stop-opacity:1;"/>
</linearGradient>
<linearGradient id="paint1_linear_509_17086" x1="8" y1="20.8333" x2="8" y2="-2.5" gradientUnits="userSpaceOnUse">
<stop stop-color="#1246FF" style="stop-color:#1246FF;stop-color:color(display-p3 0.0706 0.2745 1.0000);stop-opacity:1;"/>
<stop offset="1" stop-color="#4770FF" style="stop-color:#4770FF;stop-color:color(display-p3 0.2784 0.4392 1.0000);stop-opacity:1;"/>
</linearGradient>
</defs>
</svg>
